#!OML:ASF \\sashay\E\Suitcase\Project 1\Capture day 1\Session 1\Male1.ASF
:FULLY-SPECIFIED
:DEGREES
253
root 0.078976 17.2903 -32.1415 3.93564 -3.71106 -4.66354
lowerback 1.69979 1.40411 -0.826709
upperback -0.13324 1.93854 6.63455
thorax -1.35438 1.00688 7.32202
lowerneck -17.8124 -0.359751 -3.80368
upperneck 20.7496 3.09545 -10.3388
head 9.72067 -0.0588825 -2.5633
rclavicle -3.97569e-015 3.49861e-014
rhumerus -22.4381 -22.0948 -68.032
rradius 14.5628
rwrist 4.39003
rhand -18.5534 21.7228
rfingers 7.12502
rthumb 7.73624 -8.11563
lclavicle -3.97569e-015 3.49861e-014
lhumerus -36.5909 6.37269 87.3524
lradius 35.8737
lwrist -7.23798
lhand -1.62701 41.1908
lfingers 7.12502
lthumb 24.0311 69.7064
rfemur 0.645156 0.491709 31.8563
rtibia 20.7353
rfoot -20.2117 -7.04324
rtoes 14.9211
lfemur -31.7173 -0.150433 -12.9052
ltibia 49.5632
lfoot -17.171 0.0672613
ltoes 3.71045
254
root 0.0755647 17.3031 -32.1057 3.83848 -3.99121 -4.67314
lowerback 1.66172 1.57704 -0.870973
upperback -0.110745 2.16742 6.62059
thorax -1.34147 1.12195 7.32568
lowerneck -17.9327 -0.42575 -3.84667
upperneck 21.1516 3.06608 -10.3168
head 9.88497 -0.096426 -2.56412
rclavicle 7.15625e-015 -2.06736e-014
rhumerus -21.9015 -20.1971 -68.6898
rradius 15.4533
rwrist 2.08703
rhand -18.0889 21.9854
rfingers 7.12502
rthumb 8.18457 -7.8361
lclavicle 7.15625e-015 -2.06736e-014
lhumerus -36.5226 6.16035 87.4884
lradius 36.0801
lwrist -7.05192
lhand -1.27294 40.9847
lfingers 7.12502
lthumb 24.3706 69.455
rfemur 1.09337 0.543703 31.8405
rtibia 20.2836
rfoot -19.7073 -7.11826
rtoes 14.0659
lfemur -31.732 0.0628567 -12.9044
ltibia 48.5022
lfoot -17.1305 -0.00197297
ltoes 4.32049
255
root 0.0727489 17.3143 -32.0763 3.85464 -3.86407 -4.54444
lowerback 1.6046 1.55374 -1.02704
upperback -0.210254 2.1363 6.55696
thorax -1.41136 1.11074 7.34922
lowerneck -17.8024 -0.430366 -3.75232
upperneck 21.2687 3.0447 -10.3564
head 9.90242 -0.104937 -2.59848
rclavicle -3.18055e-015 -1.43125e-014
rhumerus -21.1899 -20.2749 -68.8439
rradius 15.4597
rwrist 2.35142
rhand -18.0895 21.7292
rfingers 7.12502
rthumb 8.18394 -8.09234
lclavicle -3.18055e-015 -1.43125e-014
lhumerus -36.6436 6.191 87.4331
lradius 36.3214
lwrist -7.01584
lhand -1.4694 41.2132
lfingers 7.12502
lthumb 24.1822 69.7087
rfemur 1.4689 0.405953 31.6268
rtibia 19.7818
rfoot -19.8003 -6.66514
rtoes 15.4836
lfemur -31.9631 -0.229198 -13.0526
ltibia 47.43
lfoot -16.6956 0.253765
ltoes 1.72574
256
root 0.0711619 17.3236 -32.0527 3.91142 -3.75671 -4.57155
lowerback 1.78077 1.56712 -0.992592
upperback -0.341557 2.16592 6.51437
thorax -1.64736 1.13248 7.27627
lowerneck -17.7631 -0.592389 -3.81241
upperneck 21.3135 2.78211 -10.1413
head 9.89352 -0.207374 -2.54862
rclavicle -3.57812e-015 -4.6118e-014
rhumerus -20.4662 -19.5088 -69.299
rradius 15.752
rwrist 1.53697
rhand -17.9792 21.9065
rfingers 7.12502
rthumb 8.2904 -7.91086
lclavicle -3.57812e-015 -4.6118e-014
lhumerus -36.6162 6.0707 87.441
lradius 36.4153
lwrist -7.0924
lhand -1.42434 41.1635
lfingers 7.12502
lthumb 24.2254 69.6533
rfemur 1.6927 0.165806 31.6133
rtibia 19.414
rfoot -19.728 -6.51556
rtoes 15.0095
lfemur -32.2965 -0.291437 -13.0267
ltibia 46.3405
lfoot -16.7682 -0.099442
ltoes 5.11312
257
root 0.0677688 17.3346 -32.0292 4.05274 -4.01268 -4.37123
lowerback 1.57379 1.67181 -1.30261
upperback -0.386904 2.29642 6.44224
thorax -1.60478 1.20123 7.37857
lowerneck -17.7168 -0.519841 -3.63397
upperneck 21.4754 2.90097 -10.3558
head 9.95383 -0.168711 -2.64228
rclavicle -1.46107e-014 4.77083e-015
rhumerus -19.9435 -17.5971 -69.8925
rradius 16.5992
rwrist -0.69504
rhand -17.9348 21.7799
rfingers 7.12502
rthumb 8.33326 -8.03576
lclavicle -1.46107e-014 4.77083e-015
lhumerus -36.688 5.89464 87.4531
lradius 36.6205
lwrist -6.69195
lhand -1.30914 41.463
lfingers 7.12502
lthumb 24.3359 69.9379
rfemur 1.84499 0.197152 31.3289
rtibia 18.9555
rfoot -19.0573 -6.23652
rtoes 15.7088
lfemur -32.6913 -0.159222 -13.2427
ltibia 45.2662
lfoot -16.6043 0.0441756
ltoes 4.11874
258
root 0.0653983 17.3481 -31.9913 4.05824 -3.88643 -4.34228
lowerback 1.50896 1.66684 -1.43094
upperback -0.421844 2.28813 6.45472
thorax -1.6091 1.19955 7.46834
lowerneck -17.9149 -0.557912 -3.79003
upperneck 21.6607 2.83611 -9.98423
head 10.0447 -0.1827 -2.49982
rclavicle -2.5842e-015 1.90833e-014
rhumerus -19.1682 -17.6155 -69.9876
rradius 16.7597
rwrist -0.516131
rhand -17.6163 22.1883
rfingers 7.12502
rthumb 8.64059 -7.61492
lclavicle -2.5842e-015 1.90833e-014
lhumerus -36.6099 5.92971 87.4916
lradius 36.7234
lwrist -6.7171
lhand -1.26982 41.1198
lfingers 7.12502
lthumb 24.3736 69.5898
rfemur 2.20451 0.313789 31.3275
rtibia 18.3687
rfoot -18.8383 -6.44899
rtoes 15.5974
lfemur -32.9448 -0.357231 -13.2625
ltibia 44.1846
lfoot -16.3899 0.293679
ltoes 3.58279
259
root 0.0631392 17.3525 -31.9631 3.92571 -3.8673 -4.87119
lowerback 1.54067 1.72425 -0.980051
upperback -0.272778 2.36931 6.62711
thorax -1.4731 1.23112 7.39006
lowerneck -17.947 -0.67056 -4.22675
upperneck 21.4364 2.64802 -9.44235
head 9.94835 -0.232735 -2.25487
rclavicle 1.35174e-014 9.54166e-015
rhumerus -18.1962 -17.0557 -70.243
rradius 17.0669
rwrist -1.5686
rhand -17.4916 22.3401
rfingers 7.12502
rthumb 8.76095 -7.45812
lclavicle 1.35174e-014 9.54166e-015
lhumerus -36.3077 5.97138 87.5874
lradius 36.7323
lwrist -6.94175
lhand -1.54187 40.5229
lfingers 7.12502
lthumb 24.1127 69.0277
rfemur 2.64249 0.0114327 31.8355
rtibia 18.0131
rfoot -18.6919 -6.18331
rtoes 14.8132
lfemur -33.0281 -0.42783 -12.6396
ltibia 43.1301
lfoot -16.0546 0.331747
ltoes 2.06174
